<?xml version="1.0" standalone="no"?>
<!DOCTYPE svg PUBLIC "-//W3C//DTD SVG 20010904//EN"
 "http://www.w3.org/TR/2001/REC-SVG-20010904/DTD/svg10.dtd">
<svg version="1.0" xmlns="http://www.w3.org/2000/svg"
 width="512.000000pt" height="512.000000pt" viewBox="0 0 512.000000 512.000000"
 preserveAspectRatio="xMidYMid meet">

<g transform="translate(0.000000,512.000000) scale(0.100000,-0.100000)"
fill="#000000" stroke="none">
<path d="M260 5110 c0 -6 79 -147 175 -315 96 -167 175 -309 175 -314 0 -7
-51 -11 -150 -11 -90 0 -150 -4 -150 -10 0 -5 26 -53 57 -107 31 -54 66 -115
77 -135 l21 -38 324 -2 325 -3 49 -85 c27 -47 58 -101 69 -120 11 -19 113
-195 226 -390 113 -195 248 -429 300 -520 52 -91 136 -235 185 -320 49 -85
100 -173 112 -195 32 -55 140 -243 275 -475 62 -107 138 -239 168 -293 31 -53
61 -96 66 -94 6 2 50 71 97 153 123 213 302 523 409 709 51 88 135 232 185
320 51 88 143 248 205 355 62 107 154 267 205 355 74 129 242 419 334 577 l16
28 337 0 337 0 78 137 c43 76 80 141 81 145 2 5 -74 8 -168 8 -160 0 -172 1
-165 18 3 9 54 100 113 202 58 102 137 238 174 303 37 66 68 121 68 123 0 2
-1037 4 -2305 4 -1557 0 -2305 -3 -2305 -10z m2614 -460 c147 -24 260 -83 317
-167 71 -102 87 -262 39 -388 -25 -66 -109 -158 -168 -186 l-33 -16 48 -18
c180 -68 264 -219 250 -450 -7 -124 -37 -193 -118 -270 -61 -58 -142 -102
-244 -132 -53 -15 -118 -18 -532 -21 l-473 -3 0 831 0 830 428 0 c235 0 454
-4 486 -10z"/>
<path d="M2260 4191 l0 -221 264 0 c161 0 276 4 293 11 101 38 148 116 141
234 -6 86 -26 127 -80 163 l-41 27 -289 3 -288 3 0 -220z"/>
<path d="M2260 3496 l0 -256 273 0 c288 1 340 6 399 46 65 42 91 93 96 189 3
50 0 97 -8 120 -17 51 -66 104 -120 129 -42 20 -66 21 -342 24 l-298 3 0 -255z"/>
</g>
</svg>
